<svg width="138" height="40" viewBox="0 0 138 40" fill="none" xmlns="http://www.w3.org/2000/svg">
<path d="M59.041 0.0039978V40" stroke="#989898" stroke-miterlimit="10"/>
<path d="M87.1151 14.9185H76.7397V21.9698H88.9161V26.3254H71.3369V0H88.8802V4.39156H76.7397V10.6669H87.1151V14.9145V14.9185Z" fill="url(#paint0_linear_18_3)"/>
<path d="M101.794 16.6903H97.4905V26.3254H92.0877V0H101.834C104.933 0 107.32 0.691929 109.001 2.07979C110.683 3.46765 111.524 5.42346 111.524 7.9552C111.524 9.75102 111.137 11.2469 110.36 12.4468C109.587 13.6466 108.412 14.6025 106.838 15.3145L112.512 26.0734V26.3254H106.71L101.794 16.6903ZM97.4905 12.2988H101.849C103.208 12.2988 104.256 11.9508 105.001 11.2589C105.746 10.5669 106.117 9.61104 106.117 8.39116C106.117 7.17128 105.766 6.17538 105.065 5.46345C104.364 4.75153 103.284 4.39556 101.834 4.39556H97.4945V12.2948L97.4905 12.2988Z" fill="url(#paint1_linear_18_3)"/>
<path d="M130.434 20.9059H120.959L119.158 26.3294H113.412L123.174 0.0039978H128.182L138 26.3294H132.255L130.434 20.9059ZM122.417 16.5143H128.971L125.676 6.65933L122.417 16.5143Z" fill="url(#paint2_linear_18_3)"/>
<path d="M72.0102 39.916H71.2094V33.8166H72.0102V39.916Z" fill="#666667"/>
<path d="M79.1702 39.916H78.3654L75.3053 35.2165V39.916H74.5005V33.8166H75.3053L78.3733 38.5361V33.8166H79.1702V39.916Z" fill="#666667"/>
<path d="M84.9675 37.2243H82.4175V39.916H81.6166V33.8166H85.3819V34.4725H82.4215V36.5643H84.9715V37.2203L84.9675 37.2243Z" fill="#666667"/>
<path d="M92.0398 37.0643C92.0398 37.6602 91.9402 38.1842 91.741 38.6281C91.5418 39.0721 91.2589 39.412 90.8883 39.648C90.5178 39.884 90.0914 40 89.6014 40C89.1113 40 88.7009 39.884 88.3303 39.648C87.9598 39.412 87.6729 39.0761 87.4697 38.6401C87.2665 38.2042 87.1589 37.6962 87.1549 37.1203V36.6803C87.1549 36.0924 87.2546 35.5764 87.4578 35.1285C87.661 34.6805 87.9478 34.3366 88.3184 34.0966C88.6889 33.8566 89.1153 33.7366 89.5934 33.7366C90.0715 33.7366 90.5098 33.8526 90.8804 34.0886C91.2509 34.3246 91.5378 34.6685 91.737 35.1165C91.9362 35.5644 92.0358 36.0844 92.0358 36.6803V37.0643H92.0398ZM91.2429 36.6723C91.2429 35.9484 91.0995 35.3924 90.8086 35.0085C90.5178 34.6205 90.1154 34.4285 89.5934 34.4285C89.0714 34.4285 88.6889 34.6205 88.3981 35.0085C88.1072 35.3964 87.9558 35.9324 87.9478 36.6203V37.0683C87.9478 37.7682 88.0953 38.3202 88.3901 38.7201C88.685 39.1201 89.0874 39.3201 89.6014 39.3201C90.1154 39.3201 90.5178 39.1321 90.8047 38.7521C91.0915 38.3721 91.235 37.8322 91.2429 37.1243V36.6723Z" fill="#666667"/>
<path d="M98.3511 34.4766H96.3988V39.916H95.6019V34.4766H93.6535V33.8206H98.3511V34.4766Z" fill="#666667"/>
<path d="M103.71 37.0963H101.076V39.2561H104.137V39.912H100.276V33.8126H104.093V34.4686H101.076V36.4324H103.71V37.0883V37.0963Z" fill="#666667"/>
<path d="M110.627 37.9802C110.551 38.6241 110.316 39.1241 109.914 39.4721C109.515 39.824 108.986 39.996 108.324 39.996C107.607 39.996 107.033 39.736 106.599 39.2201C106.165 38.7041 105.949 38.0122 105.949 37.1483V36.5603C105.949 35.9924 106.049 35.4965 106.252 35.0645C106.455 34.6365 106.738 34.3046 107.109 34.0726C107.479 33.8406 107.906 33.7286 108.396 33.7286C109.041 33.7286 109.559 33.9086 109.95 34.2726C110.34 34.6365 110.567 35.1365 110.631 35.7724H109.826C109.755 35.2845 109.607 34.9325 109.372 34.7125C109.141 34.4926 108.814 34.3846 108.396 34.3846C107.886 34.3846 107.483 34.5725 107.193 34.9565C106.902 35.3365 106.754 35.8764 106.754 36.5803V37.1723C106.754 37.8362 106.894 38.3602 107.169 38.7521C107.444 39.1441 107.83 39.3401 108.324 39.3401C108.77 39.3401 109.109 39.2401 109.348 39.0361C109.587 38.8321 109.743 38.4801 109.822 37.9802H110.627Z" fill="#666667"/>
<path d="M117.417 39.916H116.612V37.0963H113.548V39.916H112.747V33.8166H113.548V36.4403H116.612V33.8166H117.417V39.916Z" fill="#666667"/>
<path d="M123.808 39.2601H126.688V39.916H123.003V33.8166H123.808V39.2561V39.2601Z" fill="#666667"/>
<path d="M131.677 34.4766H129.724V39.916H128.927V34.4766H126.979V33.8206H131.677V34.4766Z" fill="#666667"/>
<path d="M133.605 39.916V33.8166H135.318C135.848 33.8166 136.315 33.9326 136.721 34.1686C137.127 34.4045 137.442 34.7365 137.661 35.1685C137.884 35.6004 137.996 36.0964 137.996 36.6603V37.0483C137.996 37.6242 137.884 38.1282 137.665 38.5601C137.442 38.9921 137.127 39.3241 136.717 39.556C136.307 39.788 135.828 39.908 135.283 39.912H133.601L133.605 39.916ZM134.406 34.4765V39.2601H135.251C135.868 39.2601 136.35 39.0681 136.693 38.6801C137.036 38.2962 137.207 37.7442 137.207 37.0323V36.6763C137.207 35.9844 137.044 35.4444 136.721 35.0605C136.398 34.6765 135.936 34.4805 135.342 34.4765H134.406Z" fill="#666667"/>
<path d="M10.2718 13.4187C10.2718 13.7306 10.1443 14.0146 9.9411 14.2186C9.73789 14.4226 9.455 14.5505 9.14421 14.5505H8.46687C7.8453 14.5505 7.34326 14.0466 7.34326 13.4227C7.34326 13.1107 7.47076 12.8267 7.67397 12.6227C7.87717 12.4188 8.16007 12.2908 8.47085 12.2908H9.1482C9.76977 12.2908 10.2718 12.7947 10.2718 13.4187Z" fill="url(#paint3_linear_18_3)"/>
<path d="M12.9095 4.37956C12.9095 4.69153 12.782 4.9755 12.5788 5.17948C12.3756 5.38346 12.0927 5.51145 11.7819 5.51145H11.6624C11.0408 5.51145 10.5388 5.0075 10.5388 4.38356C10.5388 4.07159 10.6663 3.78762 10.8695 3.58364C11.0727 3.37966 11.3556 3.25168 11.6663 3.25168H11.7859C12.4074 3.25168 12.9095 3.75562 12.9095 4.37956Z" fill="url(#paint4_linear_18_3)"/>
<path d="M18.2287 3.25568C20.6113 3.25568 22.9542 2.71574 25.1376 1.75183C27.4207 0.743933 30.1819 0.0879944 33.5089 0.0160016C33.5089 0.0160016 39.5691 -0.351957 43.446 3.26368C43.6093 3.41567 43.7647 3.57565 43.9201 3.73963C44.3584 4.19559 44.7489 4.71953 45.0995 5.29948H45.0955V5.30748C44.9202 7.72723 43.8922 9.54305 42.5575 10.9029C42.4379 11.0269 42.3184 11.1429 42.1909 11.2549C42.0674 11.3669 41.9399 11.4789 41.8124 11.5828C41.6849 11.6868 41.5534 11.7948 41.4219 11.8948C41.2984 11.9908 41.1709 12.0828 41.0513 12.1708C40.7764 12.3628 40.5015 12.5428 40.2226 12.7107C39.9516 12.8667 39.6807 13.0227 39.4098 13.1587C39.1229 13.3067 38.836 13.4387 38.5611 13.5627C38.3539 13.6546 38.1467 13.7426 37.9475 13.8186C37.8798 13.8506 37.816 13.8746 37.7483 13.8946C37.553 13.9706 37.3618 14.0386 37.1785 14.0986C37.055 14.1466 36.9394 14.1826 36.8279 14.2146C36.7123 14.2506 36.5968 14.2866 36.4932 14.3186C36.2262 14.3986 35.9832 14.4626 35.776 14.5146C35.5728 14.5625 35.3935 14.5985 35.262 14.6305C35.1823 14.6465 35.1186 14.6545 35.0668 14.6665C35.5648 14.5346 36.0908 14.3426 36.5569 14.0906C37.4614 13.5866 37.9993 12.6627 38.075 11.6828C38.075 11.6548 38.075 11.6268 38.075 11.5988C38.075 11.3589 38.075 11.1229 38.0272 10.8869C37.9674 10.5829 37.8837 10.299 37.7443 10.019C37.2502 9.0471 36.2023 8.0512 33.9989 7.92321C33.4332 7.89122 32.7957 7.91122 32.0705 8.00721C32.0705 8.00721 26.7234 8.75913 24.4204 13.3547C24.4204 13.3547 22.1055 17.8062 22.0178 22.5378C22.0099 22.8897 22.0138 23.2457 22.0338 23.5976C22.1971 25.7374 22.7031 27.3493 23.3725 28.5571C23.4283 28.6611 23.4841 28.7611 23.5439 28.8571C25.4803 32.0568 28.5323 32.2088 28.5323 32.2088C37.1387 33.0047 46.6215 20.11 46.6215 20.11C44.4142 29.1491 39.7484 34.0766 35.3895 36.7643C31.6601 39.0601 27.1537 39.896 22.9542 38.6601C17.9856 37.1963 15.5551 33.6446 14.3757 30.6889C14.0131 29.789 13.7701 28.9411 13.6028 28.2292C13.5589 28.0452 13.5191 27.8652 13.4832 27.7012C13.292 26.7213 13.2601 26.0934 13.2601 26.0934C13.2601 26.0854 13.2601 26.0734 13.2561 26.0654C13.2362 25.4895 13.2282 24.9135 13.2442 24.3416C13.2442 24.2376 13.2442 24.1336 13.2481 24.0296C13.2601 23.4817 13.292 22.9337 13.3318 22.4018C13.3398 22.2938 13.3477 22.1858 13.3557 22.0818C13.4155 21.2979 13.5031 20.538 13.6028 19.822C13.6386 19.566 13.6745 19.3141 13.7103 19.0701H12.9692C12.3636 19.0701 11.8217 18.6221 11.7819 18.0142C11.758 17.6702 11.8895 17.3623 12.1086 17.1423C12.3118 16.9343 12.5907 16.8103 12.9015 16.8103H14.1128C14.2323 16.2384 14.3478 15.7304 14.4514 15.3025C14.5231 15.0145 14.5869 14.7585 14.6387 14.5506H12.7023C12.1046 14.5506 11.5667 14.1026 11.5269 13.5027C11.503 13.1587 11.6305 12.8467 11.8496 12.6227C12.0528 12.4148 12.3357 12.2908 12.6465 12.2908H15.2364C15.3001 12.2468 15.3639 12.2068 15.4276 12.1628C15.575 11.7908 15.7424 11.3989 15.9336 10.9909C16.0053 10.8349 16.0811 10.6789 16.1647 10.519C16.089 10.411 15.9934 10.315 15.8858 10.239C15.7025 10.107 15.4794 10.031 15.2364 10.031H10.8495C10.2519 10.031 9.71795 9.58304 9.67412 8.9831C9.65022 8.63914 9.77772 8.32317 10.0008 8.10319C10.2041 7.89921 10.483 7.77123 10.7937 7.77123H15.7264C16.0372 7.77123 16.3161 7.64324 16.5193 7.43926C16.7265 7.23528 16.85 6.95131 16.85 6.63934C16.85 6.01941 16.348 5.51145 15.7264 5.51145H14.9216C14.3 5.51145 13.798 5.0075 13.798 4.37957C13.798 4.0716 13.9215 3.78762 14.1287 3.58364C14.3319 3.37966 14.6108 3.25168 14.9216 3.25168H18.2247L18.2287 3.25568Z" fill="url(#paint5_linear_18_3)"/>
<path d="M10.2718 13.4187C10.2718 13.7306 10.1443 14.0146 9.9411 14.2186C9.73789 14.4226 9.455 14.5505 9.14421 14.5505H8.46687C7.8453 14.5505 7.34326 14.0466 7.34326 13.4227C7.34326 13.1107 7.47076 12.8267 7.67397 12.6227C7.87717 12.4188 8.16007 12.2908 8.47085 12.2908H9.1482C9.76977 12.2908 10.2718 12.7947 10.2718 13.4187Z" fill="#009FD6"/>
<path d="M12.9095 4.37956C12.9095 4.69153 12.782 4.9755 12.5788 5.17948C12.3756 5.38346 12.0927 5.51145 11.7819 5.51145H11.6624C11.0408 5.51145 10.5388 5.0075 10.5388 4.38356C10.5388 4.07159 10.6663 3.78762 10.8695 3.58364C11.0727 3.37966 11.3556 3.25168 11.6663 3.25168H11.7859C12.4074 3.25168 12.9095 3.75562 12.9095 4.37956Z" fill="#027EB5"/>
<path d="M23.3765 28.5571L14.3797 30.6889C14.0172 29.789 13.7741 28.9411 13.6068 28.2292C13.5629 28.0452 13.5231 27.8652 13.4872 27.7012C13.296 26.7213 13.2641 26.0934 13.2641 26.0934C13.2641 26.0854 13.2641 26.0734 13.2601 26.0654C13.2402 25.4895 13.2322 24.9135 13.2482 24.3416C13.2482 24.2376 13.2482 24.1336 13.2521 24.0296C13.2641 23.4817 13.296 22.9337 13.3358 22.4018L22.0218 22.5378C22.0139 22.8897 22.0178 23.2457 22.0378 23.5976C22.2011 25.7374 22.7072 27.3493 23.3765 28.5571Z" fill="url(#paint6_linear_18_3)"/>
<path d="M46.6136 12.0148C46.6136 12.0148 47.036 23.3297 28.8392 23.4496L22.9024 23.5776L17.5314 23.6896C17.5314 23.6896 16.0412 23.6776 13.8618 23.9496C9.90524 24.4416 3.67761 25.8534 0 29.929C0.0318753 29.805 0.310784 28.8051 1.03196 27.3853C2.60979 24.2896 6.32326 19.1981 14.316 16.7983C16.5712 16.1224 19.157 15.6584 22.1414 15.5184L23.7431 15.4385L32.7917 14.9785C32.7917 14.9785 33.8157 14.9785 34.9751 14.6945C34.9871 14.6905 34.9991 14.6905 35.019 14.6825C35.0349 14.6825 35.0429 14.6785 35.0628 14.6705C35.1146 14.6585 35.1784 14.6505 35.258 14.6305C35.3895 14.6065 35.5688 14.5705 35.772 14.5145C35.9792 14.4625 36.2262 14.4026 36.4892 14.3186C36.5968 14.2866 36.7084 14.2506 36.8239 14.2146C36.9355 14.1786 37.051 14.1426 37.1745 14.0986C37.3578 14.0386 37.5491 13.9706 37.7443 13.8946C37.812 13.8746 37.8758 13.8506 37.9435 13.8186C38.1427 13.7426 38.3499 13.6546 38.5571 13.5626C38.8321 13.4387 39.1149 13.3067 39.4058 13.1587C39.6767 13.0227 39.9437 12.8747 40.2146 12.7107C40.4936 12.5427 40.7685 12.3628 41.0434 12.1708C41.1709 12.0828 41.2944 11.9988 41.414 11.8948C41.5454 11.7988 41.6769 11.6948 41.8044 11.5828C41.9319 11.4788 42.0594 11.3669 42.179 11.2549C42.3065 11.1429 42.43 11.0269 42.5455 10.9029C43.8843 9.54304 44.9123 7.72722 45.0836 5.30746H45.0876C45.9363 6.73132 46.502 8.53114 46.5977 10.8109C46.6136 11.1989 46.6176 11.5988 46.6017 12.0148H46.6136Z" fill="url(#paint7_linear_18_3)"/>
<path d="M46.6136 12.0148C46.6136 12.0148 47.036 23.3297 28.8392 23.4497L22.9024 23.5776L17.5314 23.6896C17.5314 23.6896 16.0413 23.6776 13.8618 23.9496C9.90528 24.4416 3.68164 25.8534 0.00402832 29.925C0.167389 29.593 5.74158 18.8141 23.7511 19.4461L31.1183 19.4141C31.1183 19.4141 47.5141 19.622 45.0916 5.30347H45.0956C45.9443 6.72732 46.51 8.52715 46.6057 10.8069C46.6216 11.1949 46.6256 11.5948 46.6097 12.0108L46.6136 12.0148Z" fill="url(#paint8_linear_18_3)"/>
<path d="M45.0995 5.29946H45.0955V5.30746C44.9202 7.72722 43.8923 9.54304 42.5575 10.9029C42.4379 11.0269 42.3184 11.1429 42.1909 11.2549C42.0674 11.3669 41.9399 11.4788 41.8124 11.5828C41.6849 11.6868 41.5534 11.7948 41.4219 11.8948C41.2984 11.9908 41.1709 12.0828 41.0514 12.1708C40.7765 12.3628 40.5015 12.5427 40.2226 12.7107C39.9517 12.8667 39.6807 13.0227 39.4098 13.1587C39.1229 13.3067 38.836 13.4386 38.5611 13.5626C38.3539 13.6546 38.1467 13.7426 37.9475 13.8186C37.8798 13.8506 37.816 13.8746 37.7483 13.8946C37.5531 13.9706 37.3618 14.0386 37.1785 14.0986C37.055 14.1466 36.9395 14.1826 36.8279 14.2146C36.7124 14.2506 36.5968 14.2866 36.4932 14.3186C36.2263 14.3986 35.9832 14.4625 35.776 14.5145C35.5728 14.5625 35.3935 14.5985 35.262 14.6305C35.1823 14.6465 35.1186 14.6545 35.0668 14.6665C35.5648 14.5345 36.0908 14.3426 36.557 14.0906C37.4614 13.5866 37.9993 12.6627 38.075 11.6828C38.079 11.6548 38.079 11.6268 38.079 11.5988C38.083 11.3629 38.079 11.1229 38.0312 10.8869C37.9754 10.5869 37.8878 10.299 37.7483 10.019C37.31 9.15508 36.4334 8.27517 34.7002 7.99919L37.8559 0.455948C39.6847 0.879905 41.7686 1.69983 43.446 3.26367C43.6094 3.41565 43.7648 3.57564 43.9201 3.73962C44.3584 4.19558 44.7489 4.71952 45.0995 5.29946Z" fill="url(#paint9_linear_18_3)"/>
<defs>
<linearGradient id="paint0_linear_18_3" x1="80.1265" y1="26.3294" x2="80.1265" y2="0.0039981" gradientUnits="userSpaceOnUse">
<stop stop-color="#00B1E8"/>
<stop offset="1" stop-color="#2B3C8E"/>
</linearGradient>
<linearGradient id="paint1_linear_18_3" x1="102.3" y1="-75.5804" x2="102.3" y2="-75.5804" gradientUnits="userSpaceOnUse">
<stop stop-color="#00B1E8"/>
<stop offset="1" stop-color="#2B3C8E"/>
</linearGradient>
<linearGradient id="paint2_linear_18_3" x1="125.704" y1="-75.5804" x2="125.704" y2="-75.5804" gradientUnits="userSpaceOnUse">
<stop stop-color="#00B1E8"/>
<stop offset="1" stop-color="#2B3C8E"/>
</linearGradient>
<linearGradient id="paint3_linear_18_3" x1="3.6537" y1="27.6413" x2="17.9338" y2="-11.452" gradientUnits="userSpaceOnUse">
<stop stop-color="#2B3C8E"/>
<stop offset="0.5" stop-color="#00B1E8"/>
<stop offset="1" stop-color="#2B3C8E"/>
</linearGradient>
<linearGradient id="paint4_linear_18_3" x1="3.29909" y1="27.6252" x2="18.602" y2="-14.2651" gradientUnits="userSpaceOnUse">
<stop stop-color="#2B3C8E"/>
<stop offset="0.5" stop-color="#00B1E8"/>
<stop offset="1" stop-color="#2B3C8E"/>
</linearGradient>
<linearGradient id="paint5_linear_18_3" x1="17.8302" y1="43.1717" x2="33.3137" y2="0.801807" gradientUnits="userSpaceOnUse">
<stop stop-color="#2B3C8E"/>
<stop offset="0.5" stop-color="#00B1E8"/>
<stop offset="1" stop-color="#2B3C8E"/>
</linearGradient>
<linearGradient id="paint6_linear_18_3" x1="16.5831" y1="21.0259" x2="19.2756" y2="30.5476" gradientUnits="userSpaceOnUse">
<stop offset="0.12" stop-opacity="0.4"/>
<stop offset="0.83" stop-opacity="0"/>
</linearGradient>
<linearGradient id="paint7_linear_18_3" x1="0" y1="17.6182" x2="46.6256" y2="17.6182" gradientUnits="userSpaceOnUse">
<stop stop-color="#EC1C24"/>
<stop offset="1" stop-color="#F68C1E"/>
</linearGradient>
<linearGradient id="paint8_linear_18_3" x1="0.00801273" y1="17.6142" x2="46.6256" y2="17.6142" gradientUnits="userSpaceOnUse">
<stop stop-color="#F68C1E"/>
<stop offset="0.5" stop-color="#EC1C24"/>
<stop offset="1" stop-color="#F68C1E"/>
</linearGradient>
<linearGradient id="paint9_linear_18_3" x1="43.3305" y1="12.6107" x2="34.2314" y2="4.52594" gradientUnits="userSpaceOnUse">
<stop offset="0.12" stop-opacity="0.4"/>
<stop offset="0.7" stop-opacity="0"/>
</linearGradient>
</defs>
</svg>
